# xmcd CD database file
#
# Track frame offsets:
#	150
#	14257
#	29805
#	57065
#	76587
#	107380
#	126422
#	141347
#	158360
#	178740
#	198422
#	220580
#
# Disc length: 3274 seconds
#
# Revision: 9
# Processed by: cddbd v1.5.2PL0 Copyright (c) Steve Scherf et al.
# Submitted via: CDex 1.70beta2
#
DISCID=980cc80c
DTITLE=Cris Barber - Comes Love
DYEAR=2006
DGENRE=Jazz
TTITLE0=East Of The Sun
TTITLE1=Better Than Anything
TTITLE2=Comes Love
TTITLE3=O Pato
TTITLE4=You Go To My Head
TTITLE5=Exactly Like You
TTITLE6=Hallo Haven't I seen You Before
TTITLE7=Just A Little Lovin'
TTITLE8=Teach Me Tonight
TTITLE9=Dindi
TTITLE10=You Taught My Heart To Sing
TTITLE11=Lousiana Sunday Afternoon
EXTD=YEAR: 2006
EXTT0=
EXTT1=
EXTT2=
EXTT3=
EXTT4=
EXTT5=
EXTT6=
EXTT7=
EXTT8=
EXTT9=
EXTT10=
EXTT11=
PLAYORDER=
